<svg width="64" height="64" viewBox="0 0 64 64" fill="none" xmlns="http://www.w3.org/2000/svg">
<rect x="0.500003" y="63.5" width="63" height="63" rx="31.5" transform="rotate(-90 0.500003 63.5)" stroke="#FD853A"/>
<path d="M20.6667 30.5833C19.8843 30.5833 19.25 31.2176 19.25 32C19.25 32.7824 19.8843 33.4167 20.6667 33.4167L40.6215 33.4167L33.8316 40.2066C33.2784 40.7598 33.2784 41.6568 33.8316 42.2101C34.3848 42.7633 35.2818 42.7633 35.8351 42.2101L44.0417 34.0035C45.1482 32.897 45.1482 31.103 44.0417 29.9965L35.8351 21.7899C35.2818 21.2367 34.3848 21.2367 33.8316 21.7899C33.2784 22.3432 33.2784 23.2402 33.8316 23.7934L40.6215 30.5833L20.6667 30.5833Z" fill="#FD853A"/>
</svg>
