<svg width="83" height="20" viewBox="0 0 83 20" fill="none" xmlns="http://www.w3.org/2000/svg">
<g clip-path="url(#clip0_5203_47)">
<path d="M0 15.9905L2.38046 13.3938C3.42546 14.7161 4.66067 15.4308 5.87012 15.432C7.73027 15.432 8.68769 14.6111 8.68927 12.0718L8.69561 3.69114L1.55342 3.6839L1.5562 0.165588L12.8439 0.174441L12.8348 12.4171C12.832 16.0509 11.0642 19.0569 6.00486 19.0541C3.97589 19.0529 1.59305 18.2481 0 15.9905Z" fill="white"/>
<path d="M15.8439 9.70423C15.8486 3.55936 19.6878 -0.00402074 24.5866 3.4047e-06C26.9049 3.4047e-06 28.8059 1.12435 30.0419 2.36177L27.7609 4.95534C26.889 4.13521 25.9055 3.62375 24.5839 3.62254C21.9878 3.62254 20.0904 5.85674 20.0881 9.56942C20.0849 13.3795 21.9787 15.592 24.7376 15.596C26.0565 15.596 27.1454 14.9408 28.0335 13.9622L30.3097 16.5014C28.817 18.2897 26.7698 19.2217 24.3081 19.2197C19.7623 19.2141 15.8391 15.9582 15.8439 9.70423Z" fill="white"/>
<path d="M47.7503 18.8839L43.6203 11.4642C45.5732 10.5704 46.8805 8.84406 46.8825 6.12093C46.886 1.71127 43.6991 0.343864 39.8251 0.340644L33.3237 0.335815L33.3098 18.8714L37.4569 18.8746L37.4617 12.207H39.6357L43.1202 18.8771L47.7503 18.8839ZM37.468 3.66861H39.4855C41.6603 3.66861 42.8265 4.28632 42.8249 6.1161C42.8249 7.93058 41.6563 8.87787 39.4815 8.87626H37.464L37.468 3.66861Z" fill="white"/>
<path d="M50.7649 0.337219L62.8872 0.346475L62.8844 3.86358L54.9017 3.85754L54.8989 7.57505L61.6813 7.58028L61.6785 11.0974L54.8961 11.0921L54.893 15.3577L63.1566 15.3642L63.1539 18.8825L50.7502 18.8728L50.7649 0.337219Z" fill="white"/>
<path d="M78.12 18.8781L82.5084 18.8817L76.8277 0.341665L71.8666 0.338043L66.1566 18.8692L70.3929 18.8724L71.5124 14.4648L77.0159 14.4688L78.12 18.8781ZM72.3422 11.1968L72.7781 9.48975C73.2425 7.63865 73.7525 5.46883 74.2019 3.51309H74.3141C74.7532 5.46963 75.3076 7.64146 75.7696 9.49217L76.1976 11.2L72.3422 11.1968Z" fill="white"/>
</g>
<defs>
<clipPath id="clip0_5203_47">
<rect width="82.5084" height="19.2197" fill="white"/>
</clipPath>
</defs>
</svg>
