<svg width="23" height="29" viewBox="0 0 23 29" fill="none" xmlns="http://www.w3.org/2000/svg">
<path d="M18.2918 5.6213L15.8226 6.43699L13.497 3.86495C12.2649 2.45128 10.6385 0.921409 9.89224 0.401308C7.92003 -0.973246 6.78964 1.33041 7.50378 5.07818L8.1051 8.19243L4.35792 8.91009C2.00523 9.33135 0.403742 10.0384 0.154617 10.7367C-0.317617 11.7551 0.0877393 12.1962 4.30362 14.8967L8.89261 17.8573L8.71545 20.2704C8.00059 29.3637 11.3215 31.7575 14.1152 24.1131L15.3025 20.8186L16.9115 21.4644C21.648 23.418 22.3298 23.576 22.8503 22.8291C23.1478 22.4023 22.3829 20.2045 21.1495 17.9973C18.5809 13.2741 18.5052 12.5872 20.3645 9.91961C23.1533 5.91815 22.4108 4.37011 18.2918 5.6213ZM11.8733 7.33091C11.6874 7.59767 11.3949 7.79014 11.2883 7.71584C11.1284 7.60439 11.0478 7.15187 11.0738 6.77366C11.137 6.34209 11.3923 6.20298 11.6589 6.38873C11.9787 6.61163 12.0965 7.01079 11.8733 7.33091ZM14.8411 11.9359C14.9539 12.5694 14.4395 13.8756 13.733 14.8893L12.3943 16.81L11.8786 13.9139C11.4434 11.4703 11.5971 11.0225 12.6668 10.7376C14.1729 10.2812 14.5832 10.4879 14.8411 11.9359ZM8.28381 13.3902C8.13012 13.838 7.46447 13.7704 6.61162 13.176C5.33235 12.2844 5.30012 12.1034 6.36985 11.8184C7.74823 11.4315 8.6172 12.1165 8.28381 13.3902Z" fill="#FCFCFD"/>
</svg>
