<svg width="128" height="128" viewBox="0 0 128 128" fill="none" xmlns="http://www.w3.org/2000/svg">
<path d="M84.8532 65.9732H109.867C109.44 90.8799 104.533 94.9865 89.2266 104.053C87.4666 105.12 86.8799 107.36 87.9466 109.173C89.0132 110.933 91.2532 111.52 93.0666 110.453C111.093 99.7865 117.387 93.2799 117.387 62.2398V33.4932C117.387 24.3732 109.973 17.0132 100.907 17.0132H84.9066C75.5199 17.0132 68.4266 24.1065 68.4266 33.4932V49.4932C68.3732 58.8798 75.4666 65.9732 84.8532 65.9732Z" fill="#667085" fill-opacity="0.3"/>
<path d="M27.1466 65.9732H52.16C51.7333 90.8799 46.8266 94.9865 31.52 104.053C29.76 105.12 29.1733 107.36 30.24 109.173C31.3066 110.933 33.5466 111.52 35.36 110.453C53.3866 99.7865 59.68 93.2799 59.68 62.2398V33.4932C59.68 24.3732 52.2666 17.0132 43.2 17.0132H27.2C17.76 17.0132 10.6666 24.1065 10.6666 33.4932V49.4932C10.6666 58.8798 17.76 65.9732 27.1466 65.9732Z" fill="#667085" fill-opacity="0.3"/>
</svg>
