<svg width="46" height="51" viewBox="0 0 46 51" fill="none" xmlns="http://www.w3.org/2000/svg">
<path d="M0 0H32C39.732 0 46 6.26801 46 14V37C46 44.732 39.732 51 32 51H0V0Z" fill="#FD853A"/>
<path d="M17.296 16.406C14.9101 15.3048 12.3618 17.5857 13.1928 20.0786L14.4542 23.8197C14.5914 24.2263 14.9727 24.5002 15.4018 24.5002H24C24.5523 24.5002 25 24.9479 25 25.5002C25 26.0524 24.5523 26.5002 24 26.5002H15.4018C14.9727 26.5002 14.5914 26.774 14.4542 27.1806L13.1928 30.9217C12.3618 33.4147 14.9101 35.6955 17.296 34.5943L31.0983 28.2241C33.422 27.1516 33.422 23.8488 31.0983 22.7763L17.296 16.406Z" fill="#FCFCFD"/>
</svg>
